<svg xmlns="http://www.w3.org/2000/svg" data-name="Logo" viewBox="0 0 130 130" fill="#14181d"><path d="M65,0C29.102,0,0,29.102,0,65c0,6.84,1.063,13.43,3.022,19.622c2.667-2.881,5.903-5.273,9.607-6.951 c4.252-2.089,8.707-3.456,13.297-4.122C25.325,70.794,25,67.935,25,65c0-22.091,17.909-40,40-40c22.091,0,40,17.909,40,40 c0,22.091-17.909,40-40,40c-0.408,0-0.811-0.019-1.216-0.031c-0.009,0.011-0.02,0.02-0.03,0.031c-0.002,0-0.004,0-0.006,0 c-4.475,0-8.432,2.99-9.644,7.279c-1.45,5.814-4.53,10.862-8.679,14.715C51.603,128.944,58.178,130,65,130c35.898,0,65-29.102,65-65 S100.898,0,65,0z"></path><path d="M74.593,98.461C70.834,91.254,63.501,86,55.065,85.061l0,0C54.343,85.023,53.616,85,52.884,85 c-15.924,0-29.672,9.306-36.108,22.775c5.18-13.825,17.79-24.017,32.969-25.715c-5.258-2.547-11.148-3.992-17.383-3.992 c-6.326,0-12.287,1.503-17.6,4.125C6.062,86.106,0,94.842,0,105c0,13.807,11.193,25,25,25c11.736,0,21.579-8.089,24.269-18.995 C51.02,104.663,56.849,100,63.748,100c2.752,0,5.322,0.752,7.536,2.046c0.008-0.008,0.018-0.014,0.026-0.022 c0.355,0.194,0.757,0.314,1.19,0.314c1.381,0,2.5-1.119,2.5-2.5c0-0.507-0.153-0.977-0.413-1.372 C74.589,98.465,74.591,98.463,74.593,98.461z"></path></svg>
